<?xml version="1.0" standalone="no"?>
<!DOCTYPE svg PUBLIC "-//W3C//DTD SVG 20010904//EN"
 "http://www.w3.org/TR/2001/REC-SVG-20010904/DTD/svg10.dtd">
<svg version="1.0" xmlns="http://www.w3.org/2000/svg"
 width="640.000000pt" height="640.000000pt" viewBox="0 0 640.000000 640.000000"
 preserveAspectRatio="xMidYMid meet">
<metadata>
Created by potrace 1.11, written by Peter Selinger 2001-2013
</metadata>
<g transform="translate(0.000000,640.000000) scale(0.100000,-0.100000)"
fill="#000000" stroke="none">
<path d="M1880 5763 c-353 -351 -919 -912 -1257 -1248 l-615 -610 116 -150
c64 -82 177 -231 253 -330 75 -99 139 -182 143 -185 3 -3 46 -58 95 -123 50
-65 118 -155 153 -200 35 -45 87 -113 116 -152 30 -38 80 -104 112 -145 103
-134 147 -190 384 -500 397 -517 498 -645 507 -643 5 1 191 5 413 8 223 4 468
8 545 10 77 2 172 4 210 4 64 1 73 4 106 34 106 94 295 265 313 282 23 22 207
189 270 245 21 19 54 49 72 65 18 17 67 62 110 100 43 39 93 85 113 103 19 18
53 49 75 68 23 20 83 75 135 123 52 47 104 95 117 106 l24 20 -58 65 c-32 36
-159 180 -281 320 -123 140 -237 270 -253 288 -19 21 -34 30 -42 25 -11 -7
-88 -75 -210 -187 -17 -15 -51 -46 -76 -69 -25 -22 -68 -61 -95 -86 -28 -25
-93 -84 -145 -131 -52 -47 -124 -112 -160 -145 -36 -33 -108 -98 -160 -145
-51 -47 -105 -95 -118 -107 -14 -13 -25 -23 -26 -24 -1 0 -62 -3 -136 -5 -74
-2 -172 -6 -218 -7 l-84 -3 -36 45 c-20 25 -39 48 -42 51 -3 3 -30 39 -60 80
-30 41 -59 80 -65 86 -5 6 -86 111 -180 233 -93 123 -284 371 -422 553 -139
181 -253 333 -253 337 0 5 367 373 816 818 l815 810 917 -1 917 -1 622 -830
c342 -456 715 -955 830 -1108 l208 -277 3 780 2 780 -567 757 c-313 417 -572
763 -578 769 -5 6 -21 27 -35 47 l-25 37 -1336 0 -1336 0 -643 -637z"/>
<path d="M4539 4925 c-2 -2 -182 -7 -399 -10 -217 -4 -474 -9 -570 -10 -96 -2
-197 -4 -225 -4 -57 -1 -36 14 -275 -205 -30 -28 -95 -87 -144 -131 -49 -44
-94 -85 -100 -90 -6 -6 -87 -80 -181 -165 -93 -85 -192 -175 -220 -201 -86
-79 -297 -271 -323 -293 -34 -29 -62 -59 -62 -66 0 -5 39 -51 182 -212 33 -37
68 -76 77 -86 262 -300 356 -400 367 -394 6 4 39 32 71 62 33 30 82 75 109 99
27 25 72 65 99 90 28 25 93 84 145 131 52 47 122 110 155 140 33 30 103 93
155 140 52 47 119 108 149 137 31 28 69 62 85 74 32 25 12 24 341 29 l119 2
201 -260 c110 -143 283 -369 385 -502 102 -133 249 -325 328 -427 78 -102 142
-189 142 -194 0 -7 -314 -321 -1170 -1167 l-465 -460 -914 2 -915 1 -843 1124
-843 1124 0 -785 0 -784 47 -65 c26 -35 50 -66 53 -69 3 -3 257 -341 565 -752
l560 -748 1337 0 1337 0 671 667 c369 368 933 927 1253 1245 573 568 581 576
568 601 -7 14 -30 45 -50 70 -20 24 -99 127 -176 228 -77 101 -194 253 -259
339 -66 85 -236 308 -380 495 -143 187 -282 369 -310 405 -28 36 -138 180
-245 320 -107 140 -197 257 -201 260 -3 3 -32 41 -65 85 -120 160 -163 214
-166 210z"/>
</g>
</svg>
