<?xml version="1.0" standalone="no"?>
<!DOCTYPE svg PUBLIC "-//W3C//DTD SVG 20010904//EN"
 "http://www.w3.org/TR/2001/REC-SVG-20010904/DTD/svg10.dtd">
<svg version="1.0" xmlns="http://www.w3.org/2000/svg"
 width="640.000000pt" height="640.000000pt" viewBox="0 0 640.000000 640.000000"
 preserveAspectRatio="xMidYMid meet">
<g transform="translate(0.000000,640.000000) scale(0.100000,-0.100000)"
fill="#ff9100" stroke="none">
<path d="M2040 5917 c-267 -265 -832 -827 -1256 -1248 l-771 -765 930 -1209
929 -1210 147 1 c80 1 362 5 626 9 l480 7 600 545 c330 299 613 557 629 572
l28 29 -283 323 c-156 178 -295 336 -309 351 l-25 29 -500 -454 -501 -454
-220 -7 -220 -6 -532 694 -532 695 818 815 817 815 920 1 921 0 832 -1112 832
-1112 0 780 0 779 -605 808 -605 807 -1332 0 -1333 0 -485 -483z"/>
<path d="M3816 4907 l-520 -9 -600 -545 c-331 -300 -614 -558 -630 -573 l-29
-28 306 -346 c169 -191 309 -348 311 -349 3 -1 230 201 505 450 l499 451 216
3 c204 3 217 2 235 -16 11 -11 252 -323 536 -694 l517 -674 -154 -153 c-84
-83 -454 -449 -822 -813 l-668 -661 -917 0 -916 0 -840 1120 -840 1120 -3
-777 -2 -777 613 -816 614 -815 1334 -2 1334 -3 1250 1243 c688 683 1250 1247
1250 1253 0 6 -416 553 -925 1217 l-925 1207 -105 -2 c-58 -1 -339 -6 -624
-11z"/>
</g>
</svg>
